<?xml version="1.0" encoding="UTF-8" standalone="no"?>
<!DOCTYPE svg PUBLIC "-//W3C//DTD SVG 1.1//EN" "http://www.w3.org/Graphics/SVG/1.1/DTD/svg11.dtd">
<svg width="100%" height="100%" viewBox="0 0 220 220" version="1.1" xmlns="http://www.w3.org/2000/svg" xmlns:xlink="http://www.w3.org/1999/xlink" xml:space="preserve" xmlns:serif="http://www.serif.com/" style="fill-rule:evenodd;clip-rule:evenodd;stroke-linejoin:round;stroke-miterlimit:2;">
    <path d="M215.68,107.33L195.08,86.42L195.08,86.36C202.244,83.2 206.802,75.976 206.57,68.15C206.27,57.64 197.3,49.44 186.79,49.44L168.04,49.44L168.04,49.55L167.63,49.55C157.993,49.553 149.741,42.375 148.41,32.83C142.442,36.298 138.758,42.7 138.758,49.603C138.758,54.702 140.768,59.601 144.35,63.23C147.932,66.859 144.35,63.28 144.35,63.29L143.03,64.63L119.5,88.15L119.44,88.15L42.8,11.51C42.782,11.499 42.759,11.499 42.74,11.51C37.992,16.254 33.851,21.568 30.41,27.33C30.399,27.349 30.399,27.371 30.41,27.39L81.22,78.18L73.62,85.84L25.32,37.59C22.335,44.692 20.381,52.185 19.52,59.84L59.52,99.84C59.531,99.859 59.531,99.881 59.52,99.9L51.93,107.49L51.87,107.49L19.34,75C20.757,94.212 28.983,112.303 42.53,126L42.48,126L62.05,145.56L61.48,146.12L4.32,146.12C4.273,166.468 12.347,186.016 26.74,200.4C29.904,203.555 33.334,206.432 36.99,209L70.09,175.91C79.815,181.143 90.687,183.883 101.73,183.883C138.356,183.883 168.496,153.746 168.5,117.12C168.5,113.867 168.266,110.619 167.8,107.4L215.65,107.4L215.68,107.33Z" style="fill:rgb(238,47,36);fill-rule:nonzero;"/>
    <path d="M119.57,11.53C114.2,10.804 108.755,10.824 103.39,11.59L103.39,30.13L88.93,15.67C83.003,18.214 77.541,21.729 72.77,26.07L119.57,72.87L119.57,11.53Z" style="fill:rgb(238,47,36);fill-rule:nonzero;"/>
</svg>
